<?xml version="1.0" encoding="utf-8"?>
<!DOCTYPE svg PUBLIC "-//W3C//DTD SVG 20010904//EN" "http://www.w3.org/TR/2001/REC-SVG-20010904/DTD/svg10.dtd">
<svg version="1.0" xmlns="http://www.w3.org/2000/svg" width="2067px" height="752px" viewBox="0 0 2067 752" preserveAspectRatio="xMidYMid meet">
 <g fill="#f79c00">
  <path d="M1328.5 496.3 c-16.3 -0.8 -33.1 -6.8 -45.8 -16.2 -8.3 -6.1 -18.8 -18.1 -23.4 -26.8 -11.1 -20.9 -12.3 -47.9 -3.2 -70 9.1 -21.8 29.6 -39.6 53.6 -46.5 6.7 -2 10.1 -2.3 23.8 -2.3 18.5 0 24 1.2 37.5 7.8 6.9 3.4 10.3 5.9 18.3 13.7 5.3 5.3 9.7 10.1 9.7 10.7 0 0.6 -4.7 5 -10.6 9.8 l-10.5 8.7 -7.2 -6.9 c-11.3 -11 -21.9 -15.3 -37.7 -15.3 -15.3 0 -26.5 4.3 -36.1 13.9 -10.5 10.5 -15.8 26.2 -14.5 42.9 1.1 14.9 6 25.6 16 35 9.6 9.1 20.8 13.2 36.3 13.2 16.5 0 26.3 -3.4 36.3 -12.7 l6 -5.5 0 -7.4 0 -7.4 -21.5 0 -21.5 0 0 -13.5 0 -13.5 37.5 0 37.5 0 0 22.8 0 22.7 -3.4 5 c-5 7.5 -11.9 14.8 -18.9 20.1 -7.4 5.6 -21.9 12.8 -30.2 14.9 -6.7 1.8 -20.4 3.1 -28 2.8z"/>
  <path d="M1653 495.9 c-34.2 -2.9 -63.8 -27.4 -72.1 -59.8 -8.9 -34.6 4.6 -69.4 34.5 -89 14.1 -9.1 28.1 -13.1 46.3 -13.1 23.9 0.1 43.9 8.3 60.3 24.9 11.6 11.7 18.4 24.3 21.6 40.3 2 9.8 1.4 27.9 -1.1 37.3 -7.9 29.2 -34.8 53.3 -65 58.4 -8.4 1.4 -15.8 1.7 -24.5 1z m23.5 -30.4 c8.1 -2.1 15.2 -6.4 21.9 -13.2 10.2 -10.3 15.4 -25.2 14.2 -41 -1.1 -15.4 -5.9 -25.8 -16.6 -35.6 -9.4 -8.7 -20.2 -12.7 -34.5 -12.7 -15.2 0 -27.7 5.1 -37.1 15.2 -10.6 11.5 -13.8 21.3 -13.2 39.7 0.6 14.6 2.3 20.2 9.1 29.3 7.3 9.6 15.5 15.4 26 18.3 7.1 1.9 22.8 1.9 30.2 0z"/>
  <path d="M1831 495.9 c-27.7 -2.3 -48.6 -19.5 -56.6 -46.4 -1.6 -5.3 -1.8 -11.8 -2.1 -59.7 l-0.4 -53.8 15.5 0 15.6 0 0 47.3 c0 25.9 0.5 50.5 1 54.4 1.2 8.9 4.4 15.6 10.2 20.9 6.6 6.1 12.3 7.9 24.8 7.9 9.2 0 11.2 -0.3 16 -2.6 10.2 -4.8 16.2 -13.3 18 -25.6 0.5 -3.7 1 -28.3 1 -54.5 l0 -47.8 15.5 0 15.5 0 0 50.3 c-0.1 37.6 -0.4 52.1 -1.4 57.7 -6.2 34.3 -35.2 55.1 -72.6 51.9z"/>
  <path d="M540 414 l0 -80 5.3 0 5.2 0 33 42.5 c18.1 23.4 33.3 42.5 33.7 42.5 0.3 0 15.5 -19.1 33.8 -42.5 l33.1 -42.5 5 0 4.9 0 0 80 0 80 -15.5 0 -15.5 0 -0.2 -42.7 -0.3 -42.8 -20 25.2 -20 25.2 -5.2 0 -5.1 0.1 -19.9 -25 -19.8 -25 -0.3 42.5 -0.2 42.5 -16 0 -16 0 0 -80z"/>
  <path d="M717.4 492.3 c0.4 -1 16.1 -37 34.9 -80.1 l34.2 -78.2 5.3 0.2 5.4 0.3 33.5 76.5 c18.4 42.1 34.1 78 34.8 79.8 l1.4 3.2 -16.7 0 -16.8 0 -4.4 -10.5 -4.5 -10.5 -32.9 0.3 -32.9 0.2 -4.3 10 -4.2 10 -16.7 0.3 c-15.7 0.2 -16.7 0.1 -16.1 -1.5z m95.3 -46.5 c-0.3 -0.7 -4.9 -12.5 -10.3 -26.3 -5.3 -13.7 -10 -25.3 -10.4 -25.8 -0.5 -0.6 -19.2 45.6 -20.7 51.4 -0.5 1.8 0.2 1.9 20.7 1.9 16.6 0 21.1 -0.3 20.7 -1.2z"/>
  <path d="M889 414.9 l0 -79.2 32.8 0.6 c27.1 0.5 34.2 0.9 41.7 2.5 29.9 6.5 51.2 25.1 59.7 52.2 2 6.6 2.3 9.5 2.3 23.5 0 14 -0.3 16.9 -2.3 23.5 -3.5 11.1 -8.7 20.2 -16 28.1 -8.3 9 -15.3 14.1 -25.6 18.9 -15.9 7.4 -27.3 8.9 -66.3 9 l-26.3 0 0 -79.1z m72.1 47.4 c8.4 -3.1 11.7 -5.1 17.2 -10.2 10.5 -9.8 14.5 -18.9 15.4 -34.6 0.9 -16.3 -3 -27.9 -12.9 -37.8 -10.5 -10.6 -23.2 -14.7 -46 -14.7 l-13.8 0 0 50.1 0 50.1 17.3 -0.4 c14 -0.4 18.3 -0.9 22.8 -2.5z"/>
  <path d="M1055 415 l0 -79 52.5 0 52.5 0 0 14.5 0 14.5 -37 0 -37 0 0 16.5 0 16.5 27 0 27 0 0 13 0 13 -27 0 -27 0 0 20.5 0 20.5 38.5 0 38.5 0 0 14.5 0 14.5 -54 0 -54 0 0 -79z"/>
  <path d="M1438 414.9 l0 -79.1 34.8 0.5 c37.9 0.5 40.8 0.9 53 6.8 20.6 10 31.4 33.8 25.6 56.2 -3.1 12.2 -9.7 21.4 -20.4 28.5 l-6 4 22 30.6 c12.1 16.8 22 30.8 22 31.1 0 0.3 -7.8 0.5 -17.2 0.5 l-17.3 -0.1 -20.4 -27.9 -20.4 -28 -12.3 0 -12.4 0 0 28 0 28 -15.5 0 -15.5 0 0 -79.1z m67.1 -5.9 c8.8 -2.5 14.6 -9.6 15.6 -19.2 0.7 -7.2 -1.1 -13.1 -5.4 -17.9 -5.9 -6.5 -8.4 -7.2 -28.5 -7.7 l-17.8 -0.4 0 23.1 0 23.1 16.3 0 c8.9 0 17.8 -0.5 19.8 -1z"/>
  <path d="M1941 414.9 l0 -79.1 34.8 0.5 c37.5 0.5 42 1.1 52.5 6.3 18.3 9.2 27.7 24.3 27.7 44.4 0 23.9 -14 41.7 -38.3 48.7 -3.5 1 -11.8 1.7 -25.4 2 l-20.3 0.5 0 27.9 0 27.9 -15.5 0 -15.5 0 0 -79.1z m70.5 -6.8 c11.4 -5.3 15.9 -19.3 10.1 -31.7 -4.6 -10 -11.2 -12.4 -33.8 -12.4 l-15.8 0 0 23 0 23 17.8 0 c15.1 0 18.3 -0.3 21.7 -1.9z"/>
  <path d="M2 492.3 c0 -1.2 255.5 -489.3 256.1 -489.3 0.3 0 52.7 102.9 116.4 228.8 63.7 125.8 119.6 236 124.2 245 l8.5 16.2 -63.1 0 -63.1 0 -1.2 -2.7 c-0.6 -1.6 -1.3 -7.7 -1.6 -13.8 -0.3 -10.2 0 -12.9 4.7 -36.1 4.5 -21.9 5.1 -26.6 5.1 -37 0 -14 -1.7 -22.9 -5.8 -31 -6 -11.9 -13.5 -16.8 -25.2 -16.8 -17.4 0 -37.7 10.5 -84.5 44 -50.9 36.5 -79.6 51.6 -109.5 57.8 -23.5 4.9 -39.6 4.4 -64.5 -1.9 -15.9 -4 -24.5 -5.3 -24.5 -3.7 0 0.6 1.4 4.8 3.1 9.4 3 8.3 3.6 12.5 3.1 25.1 l-0.2 6.7 -39 0 c-21.4 0 -39 -0.3 -39 -0.7z m147 -68.7 c35.9 -26.4 75.7 -52.8 101 -66.9 15.3 -8.6 40.4 -19.7 52.8 -23.3 12 -3.4 23.4 -4.6 32.3 -3.4 9.3 1.3 15.1 4.1 21.1 10.1 2.6 2.6 4.9 4.4 5.2 4.1 0.3 -0.3 0.6 -6.1 0.6 -13 0 -15.9 -2.1 -23.8 -8.1 -30.6 -2.3 -2.6 -5.9 -5.6 -8.1 -6.7 -29.9 -15.3 -100.9 21 -167.7 85.6 -18.2 17.6 -49.1 53.7 -49.1 57.3 0 1.4 0.8 0.9 20 -13.2z m7.5 -54.2 c34.7 -30.8 56.7 -48.8 78.7 -64.5 23.8 -17 40 -25.9 59.8 -32.7 9.8 -3.4 11.3 -3.7 22.5 -3.7 11.4 0 12.3 0.2 18.6 3.1 3.7 1.8 8.5 4.9 10.8 6.9 2.3 2.1 4.4 3.5 4.8 3.2 0.3 -0.4 0.6 -5.3 0.7 -10.9 0 -9.3 -0.3 -10.9 -2.8 -16.6 -3.7 -7.9 -11.4 -15.3 -18.8 -17.9 -7.4 -2.5 -24.5 -2.3 -34.8 0.5 -18.4 4.9 -33.2 12.6 -53.7 27.8 -15.5 11.5 -25.2 20.2 -39.7 35.9 -16.5 17.8 -28.4 32.8 -44.3 56 -13.7 20.1 -15.9 23.5 -14.6 23.5 0.5 0 6.2 -4.8 12.8 -10.6z m67.5 -115.3 c12.5 -14.1 33.6 -29.5 48 -35 14.6 -5.7 19.8 -6.5 39.6 -6.6 l18.2 0 -2 -4 c-1.1 -2.2 -4.5 -7 -7.5 -10.7 -14.4 -18.1 -42.5 -34.7 -77.8 -46.2 -8.9 -2.8 -21.5 -5.9 -22.1 -5.3 -0.2 0.2 0.9 2.8 2.6 5.8 9.3 16.7 10.9 38.9 4.8 66.9 -1.7 8.2 -9.3 35 -11.3 40.3 -1.4 3.5 1.5 1.5 7.5 -5.2z"/>
 </g>
 <g fill="#4b4b4d">
  <path d="M50 751.4 c-11.7 -2 -15.4 -3 -21.7 -6 -8.6 -4.1 -17.8 -12.3 -21.6 -19.1 -7.6 -14 -7.6 -32.7 -0.1 -47.5 6.3 -12.4 22.9 -24 39.4 -27.4 8.8 -1.8 31.3 -1.5 39.8 0.6 l5.2 1.3 0 5.8 0 5.8 -5.7 -2 c-12.7 -4.4 -31.7 -4.3 -43.4 0.1 -11.4 4.2 -19 11.3 -24.1 22.5 -2 4.3 -2.3 6.6 -2.3 16.5 0 10.6 0.2 12 2.8 17.2 7.8 15.9 24.8 24 47.2 22.5 7.8 -0.6 18.2 -2.8 23.8 -5.2 1.5 -0.6 1.7 -0.1 1.7 4.2 0 4.4 -0.3 5.1 -2.6 6.2 -6.4 2.9 -30.9 5.8 -38.4 4.5z"/>
  <path d="M152.5 750.9 c-13.8 -2.1 -26.6 -8.6 -34.1 -17.2 -2 -2.3 -5.2 -7.5 -7.2 -11.5 -3.1 -6.5 -3.6 -8.6 -4 -17.1 -0.2 -5.4 0.1 -12 0.7 -15.2 4 -19.4 19.2 -33.7 40.9 -38.5 10.3 -2.3 30.2 -1.5 38.6 1.5 22.2 7.9 33.9 24.4 33.8 47.5 -0.2 25 -15.1 43.5 -39.4 49 -8.5 2 -22 2.7 -29.3 1.5z m23.6 -10.3 c12.3 -2.6 20.9 -8.6 26.3 -18.3 3.6 -6.4 4.9 -13.7 4.4 -24.9 -0.5 -12.4 -3.6 -20.1 -10.8 -26.8 -8.5 -7.9 -17.4 -11 -32.1 -10.8 -18.8 0.1 -32.1 7.9 -39.2 22.9 -3.6 7.9 -4.7 19.1 -2.7 28.2 5.1 23 27.6 35.3 54.1 29.7z"/>
  <path d="M395 751.4 c-10.5 -1.5 -17 -2.8 -19.7 -4 -3.2 -1.3 -3.3 -1.5 -3.3 -7.2 l0 -6 6.1 2.5 c13.6 5.5 32.8 6.7 42.7 2.8 12.3 -5 13.1 -18.6 1.5 -26.1 -2.6 -1.7 -10.4 -5.5 -17.3 -8.4 -25.5 -10.7 -33 -17.4 -33 -29.2 0.1 -10.1 7.9 -18.6 21.1 -22.9 6.6 -2.1 9.2 -2.4 23.4 -2.4 10.7 0 17.2 0.4 19.8 1.3 l3.7 1.4 0 6 c0 5.3 -0.2 5.9 -1.7 5.3 -14.1 -6 -34.2 -6.6 -44.3 -1.5 -7.7 3.9 -10.2 12.4 -5.7 19.1 2.7 4.1 8 7.1 24.6 14.1 20.9 8.8 29 15.3 31.2 25.2 2.6 11.8 -5.5 23 -19.6 27.2 -8.5 2.4 -22.6 3.8 -29.5 2.8z"/>
  <path d="M503.6 751 c-13.8 -1.7 -25.1 -8.2 -29.7 -17.3 -4.6 -9 -4.9 -11.4 -4.9 -47.9 l0 -34.8 6.5 0 6.5 0 0 32 c0 39.6 0.7 43.7 8.7 51.5 11 10.7 39.8 9.7 48.6 -1.8 5.4 -7.1 5.7 -9.9 5.7 -47.2 l0 -34.5 7 0 7 0 0 30.8 c0 16.9 -0.5 33.6 -1.1 37.2 -2.6 16.4 -11.8 26.6 -27.7 30.4 -7.8 1.9 -18.3 2.5 -26.6 1.6z"/>
  <path d="M970.5 750.9 c-28.4 -4.4 -46.5 -23.4 -46.5 -48.9 0 -22.2 14.4 -40.5 38.1 -48.5 10.8 -3.6 30.5 -4.6 43.9 -2.2 13.6 2.4 14 2.6 14 9.2 0 3 -0.2 5.5 -0.5 5.5 -0.2 0 -3.8 -1.1 -8 -2.5 -13.5 -4.6 -34.1 -5.1 -45.1 -1.1 -11 3.9 -20.6 12.3 -25 21.8 -2.6 5.7 -2.9 7.3 -2.9 17.3 0 10.3 0.2 11.4 3.2 17.7 3.8 8.1 9.6 13.9 17.7 17.7 11.4 5.4 29.4 6.5 43.4 2.6 l6.2 -1.8 0 -14.3 0 -14.4 -13.5 0 -13.5 0 0 -5 0 -5 20 0 20 0 0 22.4 0 22.3 -7.7 2.6 c-13.7 4.5 -32.2 6.4 -43.8 4.6z"/>
  <path d="M1126.8 750.9 c-11.5 -1.3 -21.6 -5.5 -26.3 -11.1 -8 -9.4 -8.7 -21.2 -1.9 -31 2.8 -4 13.3 -11.5 19.4 -13.8 1.9 -0.7 3.7 -1.5 3.9 -1.6 0.2 -0.2 -2 -2.5 -4.9 -5.1 -5.4 -4.9 -8.9 -10.9 -9 -15.3 0 -8.3 5.7 -16.3 14.3 -20 7.1 -3.1 21.1 -3.9 28.8 -1.7 17.2 5 23.2 19.9 12.7 31.3 -2.5 2.7 -6.8 5.7 -11 7.7 l-6.9 3.3 7.8 3.9 c5.9 2.9 10 6.1 17.3 13.1 l9.6 9.3 4.2 -6.3 c6.5 -9.4 9.4 -19.8 9 -31.4 l-0.3 -9.2 6.1 0 6.2 0 0.6 4.4 c1.8 12.1 -4.8 31.2 -15.7 45.4 l-4 5.3 2 2.7 c3 4.1 9.9 9 14.4 10.4 2.9 0.8 5.7 0.9 10 0.2 l5.9 -1 0 4.7 c0 4.5 -0.1 4.8 -3.2 5.5 -1.8 0.4 -6.2 0.7 -9.9 0.6 -8.3 0 -14.1 -2.6 -21.6 -9.7 l-5.6 -5.3 -4.6 3.3 c-13 9.2 -30 13.4 -47.3 11.4z m24.2 -10.6 c6.7 -1.8 13.3 -5.1 18.3 -9.1 l3.8 -3 -6.1 -7.2 c-9.5 -11 -19.8 -18.2 -31.1 -21.9 -3.3 -1 -4.4 -0.9 -10.2 1.4 -7.3 3 -13.9 8.1 -16.4 12.9 -2.5 4.8 -2.3 14.3 0.4 18.7 5.8 9.3 24.1 12.9 41.3 8.2z m-5.7 -55 c10 -4.5 13.7 -11.5 10.1 -19 -2.4 -4.7 -6.8 -7.3 -13.8 -8 -11.9 -1.2 -20.6 4.4 -20.6 13.3 0 6.9 3.3 11.9 10.5 15.8 3.5 1.8 5.7 1.5 13.8 -2.1z"/>
  <path d="M1435.5 750.9 c-19.1 -2.9 -33.8 -12.8 -40.6 -27.3 -11.3 -24.2 -1.8 -52.9 21.6 -65.3 12.4 -6.5 18.3 -7.8 36 -7.8 9.7 0 18.3 0.5 21.8 1.3 l5.7 1.3 0 5.8 0 5.8 -5.4 -1.8 c-13.3 -4.5 -32.9 -4.2 -45.3 0.8 -9.2 3.7 -19.1 13.3 -22.2 21.7 -9.7 26.1 4.2 50.8 31.1 55.5 11.9 2 26.2 0.8 37.6 -3.3 l4.2 -1.5 0 5 c0 4.5 -0.3 5.1 -2.7 6 -8.9 3.5 -31.1 5.5 -41.8 3.8z"/>
  <path d="M246 700.5 l0 -49.6 9.2 0.3 9.2 0.3 20.9 26.5 c11.4 14.6 26.2 33.5 32.9 42 6.6 8.5 12.3 15.6 12.7 15.8 0.3 0.1 0.5 -18.9 0.3 -42.3 l-0.3 -42.5 6.6 0 6.5 0 0 49.5 0 49.5 -8.2 0 -8.3 0 -31.5 -39.7 c-17.3 -21.8 -32.4 -41.1 -33.5 -42.9 -1.1 -1.9 -2.2 -3.4 -2.5 -3.4 -0.3 0 -0.4 19.3 -0.2 43 l0.3 43 -7.1 0 -7 0 0 -49.5z"/>
  <path d="M590 700.5 l0 -49.5 7 0 7 0 0 44.5 0 44.5 24.5 0 24.5 0 0 5 0 5 -31.5 0 -31.5 0 0 -49.5z"/>
  <path d="M686 705.5 l0 -44.5 -18 0 -18 0 0 -5 0 -5 42 0 42 0 0 5 0 5 -17.5 0 -17.5 0 0 44.5 0 44.5 -6.5 0 -6.5 0 0 -44.5z"/>
  <path d="M743 745.5 l0 -4.5 6 0 6 0 0 -40.5 0 -40.5 -6 0 -6 0 0 -4.5 0 -4.5 18.5 0 18.5 0 0 4.5 0 4.5 -6 0 -6 0 0 40.5 0 40.5 6 0 6 0 0 4.5 0 4.5 -18.5 0 -18.5 0 0 -4.5z"/>
  <path d="M801 700.5 l0 -49.5 8.8 0 8.8 0 33.4 42.5 c18.3 23.4 33.4 42.5 33.4 42.5 0.1 0 -0.1 -19.1 -0.3 -42.5 l-0.3 -42.5 7.1 0 7.1 0 0 49.5 0 49.5 -8.4 0 -8.5 0 -32.3 -40.9 c-17.8 -22.6 -33 -41.9 -33.8 -43.1 -1.3 -1.9 -1.5 2.4 -1.2 40.9 l0.4 43.1 -7.1 0 -7.1 0 0 -49.5z"/>
  <path d="M1274.2 749.1 c0.2 -0.4 10.7 -22.7 23.3 -49.5 l23 -48.7 6.9 0.3 7 0.3 21.8 46 c12 25.3 22.4 47.5 23.3 49.3 l1.5 3.2 -7.3 0 -7.4 0 -6.4 -14 -6.4 -14 -26.5 0.2 -26.5 0.3 -6 13.8 -6 13.7 -7.3 0 c-4.1 0 -7.2 -0.4 -7 -0.9z m74.5 -37.8 c-1.6 -2.7 -19.7 -43.5 -20.3 -45.7 -0.7 -2.7 -2.4 -3.6 -2.4 -1.2 0 0.8 -4.5 11.5 -10 23.7 -5.5 12.3 -10 22.7 -10 23.1 0 0.4 9.7 0.8 21.6 0.8 11.8 0 21.3 -0.3 21.1 -0.7z"/>
  <path d="M1493 749.5 c0 -0.3 10.3 -22.5 23 -49.3 l23 -48.7 7.1 0 7.1 0 12.8 27 c7 14.9 17.5 37 23.3 49.3 l10.6 22.3 -7.5 -0.3 -7.4 -0.3 -6.4 -13.5 -6.3 -13.5 -26.4 -0.3 -26.4 -0.2 -6 13.7 -6 13.8 -7.3 0.3 c-3.9 0.2 -7.2 0 -7.2 -0.3z m74 -38.3 c0 -0.4 -4.5 -10.6 -10 -22.7 -5.5 -12.1 -10 -22.8 -10 -23.7 0 -1 -0.4 -1.8 -1 -1.8 -0.5 0 -1 0.5 -1 1.1 0 1 -3.1 8.2 -15.9 36.7 l-5 11.2 21.4 0 c11.8 0 21.5 -0.3 21.5 -0.8z"/>
  <path d="M1619 700.6 l0 -49.6 19.3 0 c30 0 43.8 2.3 57 9.3 24.6 13 28.8 51.1 7.9 71.6 -6.9 6.7 -17.2 12.4 -27.9 15.3 -6.6 1.7 -11.5 2.1 -32 2.5 l-24.3 0.5 0 -49.6z m51.4 37.4 c18.7 -4.8 29.2 -15.3 31.5 -31.4 2 -13.7 -1.8 -26.7 -9.8 -33.9 -9.3 -8.4 -17.8 -10.7 -41.8 -11.4 l-18.3 -0.6 0 39.7 0 39.6 15.3 0 c12.1 0 17.1 -0.4 23.1 -2z"/>
  <path d="M1742 700.5 l0 -49.5 30.5 0 30.5 0 0 5 0 5 -24 0 -24 0 0 17 0 17 22 0 22 0 0 5 0 5 -22 0 -22 0 0 17.5 0 17.5 25.5 0 25.5 0 0 5 0 5 -32 0 -32 0 0 -49.5z"/>
  <path d="M1830 700.5 l0 -49.6 9.2 0.3 9.1 0.3 21.4 39.5 c11.7 21.7 21.3 40 21.3 40.7 0 2.9 1.8 0.9 4.9 -5.4 1.8 -3.8 11.8 -22.2 22.3 -41 l19 -34.3 8.4 0 8.4 0 0 49.5 0 49.5 -6.5 0 -6.6 0 0.3 -43 c0.2 -23.7 0.1 -43 -0.2 -43 -0.3 0 -1.3 2.1 -2.3 4.8 -0.9 2.6 -11 21.8 -22.5 42.7 l-20.8 38 -3.3 0 -3.4 0 -21 -38 c-11.5 -20.9 -21.6 -40.1 -22.5 -42.7 -0.9 -2.7 -1.8 -4.8 -2.1 -4.8 -0.3 0 -0.5 19.3 -0.3 43 l0.3 43 -6.6 0 -6.5 0 0 -49.5z"/>
  <path d="M2012 731.8 l0 -18.2 -18.1 -29 c-10 -16 -18.9 -30.1 -19.7 -31.3 l-1.4 -2.3 7.5 0 7.5 0 14.5 23.8 c7.9 13 14.7 24.5 15 25.5 0.4 0.9 1 1.7 1.4 1.6 0.4 0 8 -11.5 16.8 -25.4 l16 -25.5 6.8 0 c3.7 0 6.7 0.2 6.7 0.4 0 0.2 -9 14.4 -20 31.4 l-20 31 0 18.1 0 18.1 -6.5 0 -6.5 0 0 -18.2z"/>
  <path d="M1 579.6 l0 -3.4 23.3 -0.5 c19.4 -0.5 1856.2 -4.9 1989 -4.7 l43.7 0 0 3.5 0 3.5 -15.7 0 c-8.7 0 -468.9 1.1 -1022.8 2.5 -553.9 1.4 -1009.4 2.5 -1012.2 2.5 l-5.3 0 0 -3.4z"/>
 </g>
</svg>