<?xml version="1.0" encoding="utf-8"?>
<!DOCTYPE svg PUBLIC "-//W3C//DTD SVG 20010904//EN" "http://www.w3.org/TR/2001/REC-SVG-20010904/DTD/svg10.dtd">
<svg version="1.0" xmlns="http://www.w3.org/2000/svg" width="1688px" height="356px" viewBox="0 0 1688 356" preserveAspectRatio="xMidYMid meet">
 <g fill="#393668">
  <path d="M1449.2 237 c-11.7 -3.1 -20.6 -8.3 -29.7 -17.5 -12.7 -12.6 -17.6 -24.1 -17.7 -41 0 -22.5 13.1 -42.4 34.7 -53 20.2 -9.9 40.6 -9.9 61.2 0.1 16.1 7.7 28.5 22.5 32.8 39 1.9 7.3 1.9 21.2 0 28.4 -4 15.2 -16.8 30.9 -31.2 38.3 -14.8 7.7 -34.2 9.9 -50.1 5.7z m24 -23 c19.4 -2.8 33.8 -17.4 33.9 -34.3 0.1 -8.2 -1.4 -13.4 -5.4 -19.3 -6.4 -9.7 -18.2 -16.1 -31.2 -17.1 -28.9 -2.2 -50.6 21.7 -42.1 46.5 3.9 11.4 17.8 22.2 31.1 24.1 3.3 0.5 6.2 0.9 6.5 1 0.3 0 3.5 -0.4 7.2 -0.9z"/>
  <path d="M464.3 236 c-2.4 -1 -4.3 -2.1 -4.3 -2.3 0 -0.7 53.8 -103.4 55.6 -106.1 2 -3.1 8.5 -7.1 13.1 -8.1 4.9 -1 13.2 1.8 17.1 5.8 1.9 2 14.2 24.3 30.6 55.8 l27.4 52.4 -4.6 2.2 c-5.7 2.7 -11.3 2.9 -16.7 0.4 -5.3 -2.4 -7.9 -5.6 -14 -17.4 l-5 -9.7 -31.7 0 -31.8 0 -4.9 9.8 c-5.6 11.2 -8.4 14.5 -14.3 17.2 -5.5 2.5 -11.1 2.5 -16.5 0z m85.7 -51.9 c0 -1.1 -15.3 -30.8 -17.2 -33.4 -1.2 -1.6 -2.3 0 -10.3 15.5 -5 9.5 -9.1 17.6 -9.3 18 -0.2 0.5 8 0.8 18.2 0.8 10.6 0 18.6 -0.4 18.6 -0.9z"/>
  <path d="M815.8 237 c-4.8 -1.4 -9.6 -5 -12 -8.8 -2.3 -3.7 -2.3 -4.1 -2.8 -43.7 l-0.5 -40 -14 -0.5 c-10.7 -0.4 -14.7 -0.9 -17.2 -2.2 -5.8 -3.2 -10.3 -11.3 -10.3 -18.4 l0 -3.4 54 0 54 0 0 4.8 c0 5.7 -3 11.3 -8.3 15.6 l-3.9 3.1 -14.4 0.3 -14.4 0.3 0 47 0 46.9 -3.7 -0.1 c-2.1 0 -5 -0.4 -6.5 -0.9z"/>
  <path d="M1265 178.4 l0 -59.7 5.5 0.6 c7.4 0.7 13.7 4.5 17 10.1 l2.5 4.3 0 44.7 c0 42 -0.1 44.9 -1.9 48.4 -3.7 7.2 -10.4 11.2 -18.6 11.2 l-4.5 0 0 -59.6z"/>
  <path d="M1375 236.7 c-1.4 -0.8 -18.4 -11.6 -37.8 -24.2 -37.7 -24.4 -39 -25.5 -40 -34 -0.3 -3.2 0.1 -5.6 1.8 -8.9 2 -4.3 4.2 -5.8 36.6 -26.7 19 -12.2 36 -22.6 37.9 -23.2 7.2 -2.2 16.8 4.5 18.1 12.5 l0.6 3.3 -32.1 20.5 c-17.6 11.3 -32 20.8 -32 21.1 -0.1 0.3 15.2 10.4 33.9 22.5 l34 21.9 -0.6 3.5 c-0.9 5.2 -3.1 8.9 -6.7 11 -3.7 2.3 -10.1 2.6 -13.7 0.7z"/>
  <path d="M1551.2 183.6 c0.3 -53.1 0.4 -54.5 2.4 -57.3 1.1 -1.5 4.1 -3.8 6.6 -5.1 5.8 -2.9 10.8 -2.2 15.4 2.2 2.1 2 10.5 16.6 22.8 39.6 10.7 20 19.9 36.6 20.3 36.7 0.5 0.2 9.6 -16 20.2 -35.9 10.7 -20 20.2 -37.5 21.3 -39 2.3 -3.4 9.7 -6.3 13.5 -5.3 5 1.2 9.1 4.5 11.2 8.9 2 4.1 2.1 5.7 2.1 57 l0 52.8 -6 -0.4 c-7.4 -0.5 -13.3 -4.3 -16.7 -10.7 -2.2 -4.3 -2.3 -5.2 -2.3 -28.5 0 -14 -0.4 -23.6 -0.9 -23 -0.5 0.5 -6.4 11.3 -13.1 23.9 -6.8 12.7 -13.4 24.5 -14.7 26.3 -6.8 9.1 -20.4 9.6 -28 0.8 -1.6 -1.7 -8.6 -14.1 -15.8 -27.5 l-13 -24.3 -0.5 24.3 c-0.5 24.4 -0.5 24.4 -3.2 29.1 -3.4 5.6 -10.8 9.8 -17.5 9.8 l-4.3 0 0.2 -54.4z"/>
  <path d="M630.5 235.6 c-9.3 -4.1 -13.1 -15.2 -7.9 -23.1 1 -1.5 18.6 -16.9 39.1 -34.2 20.5 -17.3 37.5 -31.9 37.9 -32.4 0.3 -0.5 -12.2 -0.9 -30.6 -0.9 -34.2 0 -34.1 0 -40.8 -6.3 -3.3 -3.2 -6.2 -10.5 -6.2 -15.9 l0 -2.8 50.6 0 c34.4 0 52 0.4 55 1.1 6 1.5 10.9 6.2 12.4 11.9 1 3.8 0.9 5 -0.7 9 -1.6 3.9 -6.5 8.5 -40.2 37 l-38.4 32.5 31.4 0.5 c34.8 0.6 34.6 0.5 40.7 7.4 3.3 3.8 5.2 9 5.2 14.4 l0 3.2 -52.2 0 c-41.1 -0.1 -52.9 -0.4 -55.3 -1.4z"/>
  <path d="M897.5 235.1 c-4.9 -2.2 -9.1 -6.9 -10.5 -11.9 -0.8 -2.5 -1 -17.9 -0.8 -46.8 l0.3 -43.1 2.8 -4 c1.5 -2.2 4.6 -5 7 -6.4 l4.2 -2.4 46.9 -0.3 46.9 -0.3 -0.6 5 c-1.1 9.4 -6.8 16.9 -14.5 19.1 -2.2 0.6 -17 1 -36.4 1 l-32.8 0 0 9.5 0 9.5 36 0 36 0 0 4.3 c0 5.6 -3.5 12.3 -8.3 16.1 l-3.9 3.1 -29.6 0.5 -29.7 0.5 -0.3 12.3 -0.3 12.2 33 0 c18.1 0 34.1 0.4 35.4 0.9 3.4 1.3 9.5 6.8 11.2 10.1 0.8 1.5 1.7 5 2.1 7.8 l0.7 5.2 -45.4 0 c-41.9 0 -45.7 -0.2 -49.4 -1.9z"/>
  <path d="M1027.5 234.7 c-2.3 -1.3 -5.2 -4.3 -7 -7.1 l-3 -4.9 -0.3 -51.4 -0.3 -51.3 4.4 0 c6.1 0 13.8 4.1 17.3 9.2 l2.9 4.1 0.3 39.9 0.3 39.8 29 0 c32.4 0 33.1 0.1 39 6.7 3.4 3.7 5.9 10.6 5.9 15.8 0 1.3 -6 1.5 -42.2 1.5 -42 0 -42.3 0 -46.3 -2.3z"/>
  <path d="M1144.9 234.7 c-2.4 -1.3 -5.7 -4.3 -7.4 -6.6 l-3 -4.3 -0.3 -43.1 c-0.3 -48.6 -0.3 -48.7 6.8 -55.1 2.1 -1.9 5.6 -3.9 7.7 -4.5 2.4 -0.7 20.1 -1.1 48.6 -1.1 l44.7 0 0 3.3 c0 8.5 -5 16.4 -12.5 19.8 -3.6 1.7 -7.3 1.9 -37.2 1.9 l-33.3 0 0 9.5 0 9.5 36 0 c30.8 0 36 0.2 36 1.5 0 5.2 -2.5 12.1 -5.9 15.8 -5.9 6.6 -6.7 6.7 -38.1 6.7 l-28 0 0 12.5 0 12.5 32.8 0 c32.5 0 32.9 0 37.3 2.3 5.6 3 10 9.8 10.7 16.7 l0.5 5 -45.5 0 -45.5 0 -4.4 -2.3z"/>
 </g>
 <g fill="#0668b1">
  <path d="M51.6 346 l-2.6 -4 3.5 0 c3.4 0 3.5 0.1 3.5 4 0 2.2 -0.4 4 -0.9 4 -0.4 0 -2 -1.8 -3.5 -4z"/>
  <path d="M59 344.5 c0 -2.4 0.5 -3.5 1.5 -3.5 0.8 0 1.5 -0.7 1.5 -1.5 0 -0.9 0.9 -1.5 2.5 -1.5 2.2 0 2.5 -0.4 2.5 -3.5 0 -1.9 0.5 -3.5 1 -3.5 0.6 0 1 -0.7 1 -1.5 0 -0.8 0.5 -1.5 1 -1.5 0.6 0 1 -0.7 1 -1.5 0 -0.9 0.7 -1.8 1.5 -2.1 0.8 -0.4 1.5 -1.2 1.5 -2 0 -0.8 0.5 -1.4 1 -1.4 0.6 0 1 -0.9 1 -1.9 0 -1.1 0.6 -2.1 1.3 -2.4 0.6 -0.2 1 -0.7 0.7 -1 -0.3 -0.3 -7.7 3.7 -16.5 8.9 -8.8 5.1 -16.6 9.2 -17.2 9.1 -0.7 -0.1 -7.4 -8.9 -14.9 -19.6 -12.1 -17.4 -13.4 -19.6 -11.9 -20.7 6 -4.4 52.8 -30.5 54.2 -30.2 1 0.2 6.5 7.1 12.3 15.3 5.8 8.3 11.3 16.1 12.3 17.5 1.5 2.1 1.9 2.3 2.7 1 0.7 -1.1 1 -0.8 1 1.6 0 2 -1.3 4.8 -4 8.4 -2.2 3 -5.9 8.2 -8.1 11.7 -2.3 3.5 -4.5 6.3 -5 6.3 -0.5 0 -0.9 0.7 -0.9 1.5 0 0.8 -0.4 1.5 -1 1.5 -0.5 0 -1 0.7 -1 1.5 0 0.9 -0.7 1.8 -1.5 2.1 -0.8 0.4 -1.5 1.2 -1.5 2 0 0.8 -0.4 1.4 -1 1.4 -0.5 0 -1 0.7 -1 1.5 0 0.9 -0.9 1.5 -2.5 1.5 -2.2 0 -2.5 0.4 -2.5 3.5 0 1.9 -0.4 3.5 -1 3.5 -0.5 0 -1 0.7 -1 1.5 0 1.1 -1.2 1.5 -4.5 1.5 -4.5 0 -4.5 0 -4.5 -3.5z"/>
  <path d="M151.1 332.3 c-1 -0.4 -46.2 -34.6 -49.9 -37.8 -0.6 -0.6 45.4 -65.5 46.4 -65.5 0.7 0 12 8.3 25.2 18.4 13.2 10.1 24.6 18.6 25.5 18.8 1 0.2 -5.3 10.1 -21.7 33.5 -12.7 18.3 -23.3 33.2 -23.6 33.2 -0.3 0 -1.1 -0.3 -1.9 -0.6z"/>
  <path d="M294.2 302.9 c-1.6 -0.6 -41.6 -27.6 -51 -34.4 -0.3 -0.2 40.5 -58.6 42.2 -60.3 1.1 -1.1 4.9 1.1 22.2 13.1 l20.9 14.4 0.3 -5.5 c0.3 -5.5 -2 -14.4 -4.5 -17 -0.7 -0.7 -1.3 -2 -1.3 -2.8 0 -0.8 -0.4 -1.4 -1 -1.4 -0.5 0 -1 -0.9 -1 -2 0 -1.1 -0.7 -2 -1.5 -2 -0.8 0 -1.5 -0.7 -1.5 -1.5 0 -0.8 -0.4 -1.5 -1 -1.5 -0.5 0 -1 -0.7 -1 -1.5 0 -0.8 -0.4 -1.5 -1 -1.5 -0.5 0 -1 -0.9 -1 -2 0 -1.1 -0.7 -2 -1.5 -2 -0.8 0 -1.5 -0.7 -1.5 -1.5 0 -0.8 -0.4 -1.5 -1 -1.5 -0.5 0 -1 -0.4 -1 -0.9 0 -0.6 -1.1 -2.2 -2.5 -3.7 -2.8 -3 -3.2 -6.5 -1.1 -8.4 2.3 -1.9 5.6 -0.8 7.4 2.5 0.9 1.7 2 3.2 2.5 3.3 0.4 0.2 0.7 1 0.7 1.8 0 0.8 0.5 1.4 1 1.4 0.6 0 1 0.9 1 2 0 1.1 0.7 2 1.5 2 0.8 0 1.5 0.7 1.5 1.5 0 0.8 0.5 1.5 1 1.5 0.6 0 1 0.7 1 1.5 0 0.8 0.5 1.5 1 1.5 0.6 0 1 0.9 1 2 0 1.1 0.7 2 1.5 2 0.8 0 1.5 0.7 1.5 1.5 0 0.8 0.4 1.5 1 1.5 0.5 0 1.3 1.2 1.6 2.7 0.4 1.5 1.3 3.3 2 4 0.6 0.7 1.7 3.6 2.4 6.5 0.6 2.9 1.6 6.3 2.2 7.5 0.6 1.2 0.9 6.1 0.6 11.7 -0.4 9.4 -0.5 9.6 -4.8 15.9 -2.5 3.5 -11.5 16.3 -20 28.5 -8.5 12.2 -15.7 22.1 -16 22.1 -0.3 0 -1.5 -0.4 -2.8 -1z"/>
  <path d="M203.7 257.6 c-0.4 -1 -0.7 -3.1 -0.7 -4.7 0 -2.7 0.2 -2.9 4 -2.9 2.2 0 4 0.4 4 0.8 0 0.5 -1.5 2.6 -3.3 4.7 -2.9 3.3 -3.4 3.6 -4 2.1z"/>
  <path d="M206 243.5 c0 -3.4 0.1 -3.5 4 -3.5 3.9 0 4 0.1 4 3.5 0 3.4 -0.1 3.5 -4 3.5 -3.9 0 -4 -0.1 -4 -3.5z"/>
  <path d="M205 221.5 c0 -3.3 0.2 -3.5 3.5 -3.5 3.3 0 3.5 0.2 3.5 3.5 0 3.3 -0.2 3.5 -3.5 3.5 -3.3 0 -3.5 -0.2 -3.5 -3.5z"/>
  <path d="M201.6 215.4 c-0.3 -0.9 -0.6 -2.4 -0.6 -3.5 0 -1 -0.7 -1.9 -1.5 -1.9 -1 0 -1.5 -1.1 -1.5 -3.5 0 -3.3 0.2 -3.5 3.5 -3.5 3.1 0 3.5 0.3 3.5 2.5 0 1.5 0.6 2.5 1.4 2.5 1.7 0 2.6 2.2 2.6 6.1 0 2.6 -0.3 2.9 -3.4 2.9 -2.2 0 -3.6 -0.6 -4 -1.6z"/>
  <path d="M191 196.5 c0 -3.1 -0.3 -3.5 -2.5 -3.5 -1.6 0 -2.5 -0.6 -2.5 -1.5 0 -0.8 -0.4 -1.5 -1 -1.5 -0.5 0 -1 -1.6 -1 -3.5 0 -3.1 -0.3 -3.5 -2.5 -3.5 -2.5 0 -2.5 -0.1 -0.9 -2.5 0.8 -1.3 1.3 -2.9 0.9 -3.5 -0.4 -0.6 0.4 -1 1.9 -1 2.3 0 2.6 0.4 2.6 3.5 0 3.1 0.3 3.5 2.5 3.5 1.6 0 2.5 0.6 2.5 1.5 0 0.8 0.5 1.5 1 1.5 0.6 0 1 1.6 1 3.5 0 3.1 0.3 3.5 2.5 3.5 2.2 0 2.5 0.4 2.5 3.5 0 3.3 -0.2 3.5 -3.5 3.5 -3.3 0 -3.5 -0.2 -3.5 -3.5z"/>
  <path d="M60.5 177 c-2.9 -1.1 -5.2 -3.9 -15.3 -18.4 l-9 -12.8 3.2 -2.8 c1.7 -1.5 12.3 -10.5 23.6 -19.9 15.6 -13 21.1 -17.1 22.8 -16.9 1.8 0.2 5.8 5.2 17.1 21.3 l14.6 21 -17.5 14.7 -17.5 14.8 -10 -0.1 c-5.5 0 -10.9 -0.4 -12 -0.9z"/>
  <path d="M276.6 135.9 c-11.9 -17.1 -21.9 -31.6 -22.2 -32.3 -0.6 -1.6 48 -37.1 50.8 -37.1 1.7 0 6.9 6.8 23.9 31 12 17.1 21.5 31.3 21.1 31.6 -0.4 0.4 -11.7 8.7 -25.2 18.5 -13.5 9.8 -24.6 18.2 -24.8 18.6 -0.2 0.4 -0.7 0.8 -1.1 0.8 -0.4 0 -10.5 -14 -22.5 -31.1z"/>
  <path d="M147.7 128.4 c-13.7 -19.6 -24.7 -35.7 -24.5 -35.9 2.3 -2 54.2 -33.5 54.8 -33.3 1 0.3 48.9 68.3 49.3 69.9 0.2 0.6 -53.7 35 -54.6 34.9 -0.1 -0.1 -11.4 -16.1 -25 -35.6z"/>
 </g>
 <g fill="#027dc2">
  <path d="M58.5 353.8 c-2.8 -1.5 -5.5 -5 -5.5 -7.1 0 -1 -0.4 -1.5 -1 -1.2 -0.5 0.3 -1 0.1 -1 -0.4 0 -0.6 1.7 -1.1 3.9 -1.1 5.2 0 6.7 -1.5 20.5 -21.7 6.4 -9.5 12.1 -17.5 12.6 -17.8 1.7 -1.1 1.1 0.9 -1.5 4.7 -1.4 2 -2.5 4.2 -2.5 4.7 0 0.6 -0.4 1.1 -0.9 1.1 -0.5 0 -1.1 0.9 -1.4 2 -1 3.8 1 2 6.6 -6.2 3.1 -4.6 6.9 -9.9 8.6 -11.8 1.6 -1.9 3.8 -4.5 4.8 -5.8 l1.8 -2.3 24.8 19.1 c13.6 10.4 25.2 19 25.7 19 0.6 0 1 0.3 1 0.8 0 1.8 -15.8 22.8 -18 23.9 -3.3 1.7 -75.5 1.8 -78.5 0.1z"/>
  <path d="M211.9 327.1 c-5.6 -5.7 -5 -7.3 14 -34.4 9.4 -13.3 17.6 -25 18.3 -26 1.2 -1.6 3.4 -0.3 26.7 15.8 14 9.6 26 17.5 26.8 17.5 0.7 0 1.3 0.4 1.3 0.8 0 1.7 -18.2 26.8 -20.3 27.9 -1.6 0.9 -10.7 1.2 -33 1.3 l-30.9 0 -2.9 -2.9z"/>
  <path d="M9.6 285.6 c-9.8 -14.2 -10.5 -16.8 -5.7 -21.7 l2.9 -2.9 31.6 0 31.5 0 2.8 2.5 c1.7 1.5 2.2 2.4 1.4 2.5 -1.3 0 -47.5 26.2 -53.3 30.2 l-2.7 1.8 -8.5 -12.4z"/>
  <path d="M205 253.6 c0 -1.3 0.7 -5.3 1.6 -8.8 3.2 -12.2 0.4 -23.4 -9.4 -37.5 -3.1 -4.6 -8.3 -12 -11.5 -16.6 -3.8 -5.5 -5.6 -8.9 -5.1 -10 0.3 -0.9 1.1 -1.4 1.6 -1.1 1.5 1 -0.9 -3.3 -6.5 -11.4 -3.1 -4.3 -4.7 -7.6 -4.1 -8.1 2 -1.8 51.7 -32.4 53.3 -32.7 2.1 -0.5 34 45.2 34.8 49.9 0.4 2.9 -1.8 6.5 -24.6 39.2 -16.5 23.7 -25.7 36.1 -27 36.3 -1.3 0.2 -1.8 0.9 -1.4 1.8 0.3 0.8 0 1.4 -0.6 1.4 -0.6 0 -1.1 -1.1 -1.1 -2.4z"/>
  <path d="M332 251.5 c-1 -1.2 -1 -1.5 0 -1.5 0.7 0 1 -0.8 0.7 -2 -0.3 -1.1 -0.1 -2 0.4 -2 1.8 0 0.9 -2.8 -1.1 -3.3 -2 -0.5 -2.9 -4.7 -1 -4.7 0.6 0 1 0.9 1 2 0 1.3 0.5 1.8 1.5 1.4 1.9 -0.8 2 -5.4 0.1 -5.4 -0.9 0 -1.8 -2.2 -2.5 -6.2 -1.8 -9.3 -4.7 -14.8 -16.5 -31.6 -5.8 -8.4 -10.6 -15.8 -10.6 -16.5 0 -0.7 0.5 -1.8 1.1 -2.4 0.9 -0.9 0 -2.8 -3.5 -7.7 -2.5 -3.5 -4.6 -7.1 -4.5 -7.8 0 -1.5 48.9 -37.3 51 -37.3 0.7 0 8.9 10.8 18.1 24 17.6 25 18.6 27.2 15.6 32.8 -0.8 1.6 -46.1 66.7 -48.3 69.5 -0.1 0.1 -0.8 -0.4 -1.5 -1.3z m2.8 -21.2 c-0.5 -2.5 -2.8 -2.8 -2.8 -0.4 0 1.2 0.6 2.1 1.6 2.1 0.9 0 1.4 -0.7 1.2 -1.7z"/>
  <path d="M79 176.7 c0 -1.8 34.8 -31 36.3 -30.4 0.7 0.2 4 4.6 7.5 9.7 7.2 10.6 7.7 13.3 3.3 18.2 l-2.9 3.3 -22.1 0.3 c-18.3 0.3 -22.1 0.1 -22.1 -1.1z"/>
 </g>
 <g fill="#1958a5">
  <path d="M53 345.9 c0 -0.7 -0.3 -0.9 -0.6 -0.6 -0.4 0.3 -2.9 -2.5 -5.6 -6.4 -2.8 -3.9 -4.6 -7.5 -4.1 -7.9 1.6 -1.6 45.8 -26.8 46.2 -26.4 0.2 0.2 -0.8 2.2 -2.3 4.4 -1.4 2.2 -2.6 4.4 -2.6 4.9 0 0.5 -0.5 1.1 -1 1.3 -0.6 0.2 -1.2 1.3 -1.3 2.6 0 1.2 -0.7 2.2 -1.5 2.2 -0.9 0 -1.1 0.7 -0.7 2 0.4 1.4 0.2 2 -0.9 2 -0.9 0 -1.3 0.6 -1 1.4 0.3 0.8 -0.3 1.6 -1.5 1.9 -1.4 0.3 -1.9 1 -1.5 2.1 0.4 1 0.1 1.6 -1 1.6 -1 0 -1.3 0.6 -1 1.5 0.4 1 0 1.5 -1.1 1.5 -0.9 0 -1.3 0.4 -1 1 0.8 1.3 -2.4 6 -4.1 6 -0.8 0 -1.1 0.6 -0.8 1.5 0.4 1 0 1.5 -1.5 1.5 -1.2 0 -2 0.6 -1.8 1.3 0.1 0.8 -1.4 1.3 -4.5 1.5 -3.3 0.2 -4.8 -0.1 -4.8 -0.9z"/>
  <path d="M195.6 269.2 c-1.4 -0.3 -43.4 -31.6 -49.9 -37.2 -0.6 -0.6 26.2 -40.1 29.8 -43.9 1.2 -1.2 2.4 -0.6 7.9 3.8 5.7 4.5 6.6 5 6.6 3.2 0 -1.6 -0.6 -2.1 -2.5 -2.1 -1.6 0 -2.5 -0.6 -2.5 -1.5 0 -0.8 -0.4 -1.5 -1 -1.5 -0.5 0 -1 -1.6 -1 -3.5 0 -3.9 2.4 -4.9 3.5 -1.5 0.3 1.1 1.1 2 1.6 2 0.5 0 0.9 0.7 0.9 1.5 0 0.8 0.4 1.5 0.8 1.5 0.4 0 1.6 1.5 2.7 3.3 1 1.7 2.4 3.8 3.1 4.4 0.7 0.7 2.2 2.9 3.5 5 1.3 2.1 2.9 4.4 3.6 5.1 0.7 0.7 1.3 2 1.3 2.8 0 0.8 0.5 1.4 1.1 1.4 0.5 0 0.7 0.5 0.4 1 -0.3 0.6 -0.2 1 0.3 1 0.9 0 2.5 4 2.6 6.5 0.1 0.6 0.5 1.3 1 1.7 1.2 0.8 2.1 20.8 1 20.8 -0.5 0 -0.9 1.9 -1 4.1 0 2.5 -0.6 4.6 -1.5 5.3 -0.9 0.6 -1.4 1.7 -1.2 2.3 0.3 0.7 -1.7 4.3 -4.4 8.1 -3.5 5 -5.3 6.7 -6.7 6.4z"/>
  <path d="M309 227.4 c-12.4 -8.6 -23 -16.1 -23.7 -16.7 -0.9 -0.9 1.3 -4.7 9.3 -16.2 5.8 -8.2 10.9 -15.1 11.4 -15.3 0.6 -0.2 1 0.4 1 1.2 0 0.9 0.7 1.9 1.5 2.2 0.8 0.4 1.2 1 0.9 1.5 -0.3 0.5 0.2 1.2 1 1.5 0.9 0.3 1.6 1.2 1.6 2 0 0.8 0.5 1.4 1 1.4 0.6 0 1 0.5 1 1.1 0 0.6 0.6 1.7 1.3 2.4 2.9 3.3 3.7 4.5 3.7 5.5 0 0.5 0.5 1 1 1 0.6 0 1 0.5 1 1.1 0 0.6 0.6 1.7 1.3 2.4 2.9 3.3 3.7 4.5 3.7 5.5 0 0.5 0.5 1 1.2 1 0.6 0 0.9 0.3 0.5 0.6 -0.3 0.4 0.1 1.3 0.9 2.1 0.8 0.8 1.2 1.9 0.9 2.4 -0.4 0.5 -0.1 0.9 0.5 0.9 0.6 0 0.8 0.5 0.5 1 -0.3 0.6 -0.1 1 0.5 1 0.7 0 1 0.7 0.6 1.5 -0.3 0.8 0 1.5 0.5 1.5 0.6 0 0.9 0.9 0.6 2 -0.3 1.1 -0.1 2 0.4 2 0.5 0 0.9 0.9 0.9 2 0 1.1 -0.4 2 -1 2 -0.5 0 -1 0.9 -1 2 0 1.1 0.7 2 1.5 2 0.8 0 1.5 0.9 1.5 2 0 1.1 -0.7 2 -1.5 2 -1.9 0 -2.1 5.6 -0.2 6.3 0.8 0.4 0.7 0.6 -0.3 0.6 -0.8 0 -11.6 -7 -24 -15.5z"/>
  <path d="M27.7 133.6 c-5.9 -8.5 -10.7 -15.6 -10.7 -15.9 0 -0.2 8.9 -7.9 19.9 -17.1 l19.9 -16.6 6.6 0 c3.7 0 7.6 0.4 8.6 1 1 0.5 5.4 6.1 9.9 12.5 6 8.6 7.6 11.5 6.3 11.5 -1 0 -12.5 9 -25.6 20 -13.1 11 -23.9 20 -24 20 -0.1 0 -5 -6.9 -10.9 -15.4z"/>
  <path d="M241.6 85.9 c-8.1 -11.6 -14.9 -21.6 -15.2 -22.3 -0.3 -0.7 9.8 -8.6 24.1 -19.1 13.5 -9.9 25 -18.1 25.4 -18.3 2 -0.7 7.6 6.1 19.9 23.8 12.4 17.8 12.8 18.5 10.7 19.6 -3.1 1.6 -47.8 34.3 -49.1 35.9 -0.8 1.1 -4.3 -3.2 -15.8 -19.6z"/>
  <path d="M109.2 73.4 c-8.9 -12.8 -16.4 -23.9 -16.7 -24.6 -0.5 -1.4 49 -32.8 53 -33.5 1.8 -0.4 4.5 3 18.4 22.7 9 12.8 15.9 23.6 15.4 24 -0.4 0.5 -12.5 8.2 -26.8 17.1 -14.3 8.9 -26.2 16.5 -26.5 16.9 -0.3 0.4 -7.8 -9.8 -16.8 -22.6z"/>
 </g>
 <g fill="#2d4b9c">
  <path d="M187.6 200.4 l-13.6 -10.5 3.7 -5.3 c2 -3 4.2 -5.2 4.8 -5 1.6 0.6 4.6 6 3.8 6.8 -0.3 0.3 0.2 0.6 1.1 0.6 1.2 0 1.6 0.5 1.2 1.5 -0.3 0.8 0 1.5 0.7 1.5 1.6 0 4.6 5.1 4 6.8 -0.3 0.6 0.2 1.2 1.1 1.2 1 0 1.3 0.6 1 1.5 -0.4 0.9 0 1.5 1 1.5 1 0 1.3 0.6 1 1.5 -0.4 1 0 1.5 1.1 1.5 0.9 0 1.3 0.4 1 1 -0.3 0.5 0.2 2.1 1.1 3.5 0.9 1.4 1.4 2.5 1.1 2.5 -0.2 0 -6.6 -4.7 -14.1 -10.6z"/>
  <path d="M11.1 109.8 c-10.5 -15.1 -11.3 -18.3 -6.3 -23.1 l2.9 -2.8 28.8 0.1 c23.7 0.1 28.6 0.3 27.4 1.4 -0.8 0.7 -9.9 8.4 -20.4 17.1 -10.4 8.7 -20 16.8 -21.2 18.1 l-2.1 2.3 -9.1 -13.1z m17.5 4 l2.9 -3.3 -3.2 2.9 c-3.1 2.8 -3.8 3.6 -3 3.6 0.2 0 1.6 -1.5 3.3 -3.2z"/>
  <path d="M218.7 53.1 c-11.2 -16 -12 -19 -6.8 -24.2 l2.9 -2.9 30.7 0 c20.1 0 31.3 0.4 32.7 1.1 2 1.1 2 1.1 -0.4 2.7 -8.4 5.8 -47.5 34.7 -48.4 35.8 -0.8 1.1 -3.2 -1.6 -10.7 -12.5z"/>
  <path d="M81.2 33.3 c-14.7 -21 -15.7 -23.6 -10.6 -28.6 3.6 -3.6 6.7 -3.9 38.5 -3.5 22.3 0.2 27.9 0.6 29.3 1.7 3.2 2.6 11.1 14.4 9.9 14.8 -1.9 0.7 -52.8 32.5 -53.4 33.5 -0.3 0.5 -6.5 -7.6 -13.7 -17.9z"/>
 </g>
</svg>